<svg width="124" height="70" viewBox="0 0 124 70" fill="none" xmlns="http://www.w3.org/2000/svg">
<g clip-path="url(#clip0_13768_268)">
<path d="M22.1196 20.5254L4.49838 2.80795C2.71013 1.01007 0.284332 -5.50259e-06 -2.24511 -5.50259e-06H-17.5472C-20.0803 -0.00283839 -22.5104 1.00747 -24.3013 2.80795L-33.1132 11.6667L-41.9489 20.5254C-43.7375 22.3256 -44.7408 24.7666 -44.7375 27.3106V42.6894C-44.7408 45.2334 -43.7375 47.6744 -41.9489 49.4746L-24.325 67.192C-22.5356 68.9898 -20.1091 70 -17.5789 70H-2.27677C0.258896 70.0041 2.69192 68.9937 4.48518 67.192L22.1275 49.4746C23.915 47.6738 24.9172 45.233 24.9135 42.6894V27.3106C24.9151 24.7659 23.9099 22.3249 22.1196 20.5254Z" fill="white"/>
<path d="M-9.94391 16.4182C-20.1551 16.4183 -28.4329 24.7376 -28.4329 35C-28.4329 45.2625 -20.155 53.5818 -9.94367 53.5818C0.267628 53.5818 8.54552 45.2625 8.54552 35.0005C8.54433 24.7383 0.26705 16.4195 -9.94391 16.4182Z" fill="white" stroke="white" stroke-width="31"/>
<path d="M43.6191 23.2299H36.5854V46.6295H43.5664C51.0249 46.6295 55.7157 42.1511 55.7157 34.9284C55.7157 27.7057 51.0934 23.2299 43.6191 23.2299ZM43.5664 43.4769H40.3661V26.3852H43.5321C48.7612 26.3852 51.7108 29.567 51.7108 34.9284C51.7108 40.2898 48.8087 43.4849 43.5664 43.4849V43.4769Z" fill="white"/>
<path d="M64.3036 29.3311C59.9504 29.3311 57.3201 31.7386 57.1802 35.0318H60.858C60.9609 33.1307 62.1772 32.078 64.2377 32.078C66.3747 32.078 67.6675 33.2659 67.6675 35.525V36.0367L63.3908 36.4663C59.6497 36.8746 56.6104 38.1633 56.6104 41.6527C56.6104 44.7443 59.0719 46.9557 62.5966 46.9557C65.1268 46.9557 67.0184 45.6299 67.7281 43.2886H67.8257V46.6163H71.3716V36.217C71.3241 31.6405 68.5961 29.3311 64.3036 29.3311ZM67.6463 39.2159C67.6463 42.4402 66.1293 44.2379 63.4963 44.2379C61.8738 44.2379 60.4596 43.3205 60.4596 41.7269C60.4596 40.1333 61.7418 39.2849 63.9659 39.0489L67.6463 38.6193V39.2159Z" fill="white"/>
<path d="M81.7665 29.3311C79.3049 29.3311 77.5452 30.6223 76.8408 32.9928H76.7748V29.6705H73.1973V46.6402H76.8751V36.453C76.8751 33.6716 77.9884 32.1125 80.2494 32.1125C82.5105 32.1125 83.6344 33.539 83.6344 36.689V46.6295H87.3016V35.6072C87.3016 31.8765 85.4812 29.3311 81.7665 29.3311Z" fill="white"/>
<path d="M97.037 44.2193C94.2377 44.2193 92.6838 41.7083 92.6838 38.15C92.6838 34.5917 94.1348 32.078 96.8681 32.078C98.86 32.078 100.24 33.3322 100.646 35.525H104.34C103.699 31.5239 100.731 29.3523 96.7784 29.3523C91.8527 29.3523 88.7817 33.5947 88.7817 38.1712C88.7817 42.8511 91.9477 46.9902 96.9077 46.9902C100.865 46.9902 103.86 44.7523 104.501 40.7511H100.76C100.411 42.8989 98.9919 44.2193 97.037 44.2193Z" fill="white"/>
<path d="M113.524 29.3311C108.495 29.3311 105.625 33.4701 105.625 38.15C105.625 42.8299 108.564 46.9689 113.587 46.9689C117.705 46.9689 120.338 44.7311 121.045 41.3822H117.368C116.961 42.7398 116.017 44.2326 113.827 44.2326C111.26 44.2326 109.474 42.4349 109.302 39.3511H121.362C121.874 33.4356 118.547 29.3311 113.524 29.3311ZM109.337 36.5909C109.571 33.8439 111.046 32.0833 113.524 32.0833C116.001 32.0833 117.436 33.8492 117.671 36.5909H109.337Z" fill="white"/>
<g clip-path="url(#clip1_13768_268)">
<path d="M24.1196 20.5254L6.49838 2.80795C4.71013 1.01007 2.28433 -5.50259e-06 -0.24511 -5.50259e-06H-15.5472C-18.0803 -0.00283839 -20.5104 1.00747 -22.3013 2.80795L-31.1132 11.6667L-39.9489 20.5254C-41.7375 22.3256 -42.7408 24.7666 -42.7375 27.3106V42.6894C-42.7408 45.2334 -41.7375 47.6744 -39.9489 49.4746L-22.325 67.192C-20.5356 68.9898 -18.1091 70 -15.5789 70H-0.276772C2.2589 70.0041 4.69192 68.9937 6.48518 67.192L24.1275 49.4746C25.915 47.6738 26.9172 45.233 26.9135 42.6894V27.3106C26.9151 24.7659 25.9099 22.3249 24.1196 20.5254Z" fill="white"/>
<path d="M-7.94391 16.4182C-18.1551 16.4183 -26.4329 24.7376 -26.4329 35C-26.4329 45.2625 -18.155 53.5818 -7.94367 53.5818C2.26763 53.5818 10.5455 45.2625 10.5455 35.0005C10.5443 24.7383 2.26705 16.4195 -7.94391 16.4182Z" fill="white" stroke="white" stroke-width="31"/>
</g>
</g>
<defs>
<clipPath id="clip0_13768_268">
<rect width="124" height="70" fill="white"/>
</clipPath>
<clipPath id="clip1_13768_268">
<rect width="124" height="70" fill="white" transform="translate(2)"/>
</clipPath>
</defs>
</svg>
