<svg width="24" height="24" viewBox="0 0 24 24" fill="none" xmlns="http://www.w3.org/2000/svg">
<path d="M11.7277 3C9.35762 3 9.06017 3.01036 8.12932 3.05273C7.20022 3.09527 6.56607 3.24236 6.01117 3.45818C5.43722 3.68109 4.95032 3.97927 4.46522 4.46454C3.97978 4.94962 3.68161 5.43657 3.45798 6.01037C3.24163 6.56547 3.09436 7.19982 3.05255 8.12857C3.01091 9.05947 3 9.35712 3 11.7273C3 14.0975 3.01055 14.394 3.05273 15.3249C3.09545 16.254 3.24253 16.8882 3.45816 17.4431C3.68125 18.0171 3.97942 18.504 4.46468 18.9891C4.94957 19.4746 5.43647 19.7735 6.01007 19.9964C6.56537 20.2122 7.19967 20.3593 8.12857 20.4018C9.05947 20.4442 9.35672 20.4546 11.7266 20.4546C14.0969 20.4546 14.3935 20.4442 15.3244 20.4018C16.2534 20.3593 16.8883 20.2122 17.4436 19.9964C18.0174 19.7735 18.5035 19.4746 18.9884 18.9891C19.4739 18.504 19.772 18.0171 19.9957 17.4433C20.2102 16.8882 20.3575 16.2538 20.4011 15.3251C20.4429 14.3942 20.4538 14.0975 20.4538 11.7273C20.4538 9.35712 20.4429 9.05962 20.4011 8.12872C20.3575 7.19962 20.2102 6.56547 19.9957 6.01057C19.772 5.43657 19.4739 4.94962 18.9884 4.46454C18.503 3.97909 18.0175 3.68091 17.443 3.45818C16.8867 3.24236 16.2521 3.09527 15.3231 3.05273C14.3922 3.01036 14.0958 3 11.725 3H11.7277ZM10.9449 4.57273C11.1772 4.57237 11.4365 4.57273 11.7277 4.57273C14.0578 4.57273 14.334 4.58109 15.2542 4.62291C16.1051 4.66182 16.5669 4.80402 16.8745 4.92347C17.2818 5.08161 17.5721 5.27071 17.8774 5.57616C18.1828 5.88162 18.3719 6.17257 18.5304 6.57982C18.6499 6.88712 18.7923 7.34892 18.831 8.19982C18.8728 9.11982 18.8819 9.39617 18.8819 11.7253C18.8819 14.0544 18.8728 14.3307 18.831 15.2507C18.7921 16.1016 18.6499 16.5635 18.5304 16.8707C18.3723 17.278 18.1828 17.568 17.8774 17.8733C17.5719 18.1787 17.2819 18.3678 16.8745 18.526C16.5672 18.646 16.1051 18.7878 15.2542 18.8267C14.3342 18.8686 14.0578 18.8776 11.7277 18.8776C9.39742 18.8776 9.12127 18.8686 8.20132 18.8267C7.35042 18.7875 6.88862 18.6453 6.58082 18.5258C6.17352 18.3676 5.88262 18.1786 5.57717 17.8731C5.27177 17.5676 5.08267 17.2775 4.92412 16.87C4.80467 16.5627 4.66231 16.1009 4.62358 15.25C4.58177 14.33 4.57341 14.0536 4.57341 11.7231C4.57341 9.39256 4.58177 9.11762 4.62358 8.19762C4.6625 7.34672 4.80467 6.88492 4.92412 6.57727C5.08232 6.17002 5.27177 5.87912 5.57717 5.57362C5.88262 5.26817 6.17352 5.07911 6.58082 4.92056C6.88842 4.80056 7.35042 4.65873 8.20132 4.61964C9.00637 4.58328 9.31837 4.57236 10.9449 4.57054V4.57273ZM16.3861 6.02182C15.808 6.02182 15.3389 6.49037 15.3389 7.06872C15.3389 7.64692 15.808 8.11602 16.3861 8.11602C16.9643 8.11602 17.4334 7.64692 17.4334 7.06872C17.4334 6.49057 16.9643 6.02147 16.3861 6.02147V6.02182ZM11.7277 7.24547C9.25272 7.24547 7.24607 9.25217 7.24607 11.7273C7.24607 14.2024 9.25272 16.2082 11.7277 16.2082C14.2028 16.2082 16.2087 14.2024 16.2087 11.7273C16.2087 9.25217 14.2026 7.24547 11.7276 7.24547H11.7277ZM11.7277 8.81817C13.3342 8.81817 14.6367 10.1206 14.6367 11.7273C14.6367 13.3338 13.3342 14.6364 11.7277 14.6364C10.1211 14.6364 8.81872 13.3338 8.81872 11.7273C8.81872 10.1206 10.1211 8.81817 11.7277 8.81817Z" fill="black"/>
</svg>
