<svg width="58" height="31" viewBox="0 0 58 31" fill="none" xmlns="http://www.w3.org/2000/svg">
<rect width="58" height="31" rx="15.5" fill="#BF78D7"/>
<path d="M14.4385 21.1758C13.7764 21.1758 13.1758 21.0645 12.6367 20.8418C12.1035 20.6133 11.6436 20.2939 11.2568 19.8838C10.876 19.4736 10.583 18.9873 10.3779 18.4248C10.1729 17.8623 10.0703 17.2471 10.0703 16.5791V16.21C10.0703 15.4365 10.1846 14.748 10.4131 14.1445C10.6416 13.5352 10.9521 13.0195 11.3447 12.5977C11.7373 12.1758 12.1826 11.8564 12.6807 11.6396C13.1787 11.4229 13.6943 11.3145 14.2275 11.3145C14.9072 11.3145 15.4932 11.4316 15.9854 11.666C16.4834 11.9004 16.8906 12.2285 17.207 12.6504C17.5234 13.0664 17.7578 13.5586 17.9102 14.127C18.0625 14.6895 18.1387 15.3047 18.1387 15.9727V16.7021H11.0371V15.375H16.5127V15.252C16.4893 14.8301 16.4014 14.4199 16.249 14.0215C16.1025 13.623 15.8682 13.2949 15.5459 13.0371C15.2236 12.7793 14.7842 12.6504 14.2275 12.6504C13.8584 12.6504 13.5186 12.7295 13.208 12.8877C12.8975 13.04 12.6309 13.2686 12.4082 13.5732C12.1855 13.8779 12.0127 14.25 11.8896 14.6895C11.7666 15.1289 11.7051 15.6357 11.7051 16.21V16.5791C11.7051 17.0303 11.7666 17.4551 11.8896 17.8535C12.0186 18.2461 12.2031 18.5918 12.4434 18.8906C12.6895 19.1895 12.9854 19.4238 13.3311 19.5938C13.6826 19.7637 14.0811 19.8486 14.5264 19.8486C15.1006 19.8486 15.5869 19.7314 15.9854 19.4971C16.3838 19.2627 16.7324 18.9492 17.0312 18.5566L18.0156 19.3389C17.8105 19.6494 17.5498 19.9453 17.2334 20.2266C16.917 20.5078 16.5273 20.7363 16.0645 20.9121C15.6074 21.0879 15.0654 21.1758 14.4385 21.1758ZM21.6631 13.5205V21H20.0371V11.4902H21.5752L21.6631 13.5205ZM21.2764 15.8848L20.5996 15.8584C20.6055 15.208 20.7021 14.6074 20.8896 14.0566C21.0771 13.5 21.3408 13.0166 21.6807 12.6064C22.0205 12.1963 22.4248 11.8799 22.8936 11.6572C23.3682 11.4287 23.8926 11.3145 24.4668 11.3145C24.9355 11.3145 25.3574 11.3789 25.7324 11.5078C26.1074 11.6309 26.4268 11.8301 26.6904 12.1055C26.96 12.3809 27.165 12.7383 27.3057 13.1777C27.4463 13.6113 27.5166 14.1416 27.5166 14.7686V21H25.8818V14.751C25.8818 14.2529 25.8086 13.8545 25.6621 13.5557C25.5156 13.251 25.3018 13.0312 25.0205 12.8965C24.7393 12.7559 24.3936 12.6855 23.9834 12.6855C23.5791 12.6855 23.21 12.7705 22.876 12.9404C22.5479 13.1104 22.2637 13.3447 22.0234 13.6436C21.7891 13.9424 21.6045 14.2852 21.4697 14.6719C21.3408 15.0527 21.2764 15.457 21.2764 15.8848Z" fill="black"/>
<path d="M41 18L44.4641 14.25H37.5359L41 18Z" fill="black"/>
</svg>
