<svg width="24" height="24" viewBox="0 0 24 24" fill="none" xmlns="http://www.w3.org/2000/svg">
<path fill-rule="evenodd" clip-rule="evenodd" d="M19.2262 7.95877C19.233 8.13362 19.2353 8.30847 19.2353 8.48332C19.2353 13.7855 15.5054 19.9066 8.68482 19.9066C6.58967 19.9066 4.64147 19.2389 3 18.1021C3.29016 18.1339 3.58484 18.1578 3.88405 18.1578C5.62122 18.1578 7.22122 17.5138 8.49037 16.4327C6.86776 16.4088 5.49762 15.2403 5.02507 13.6504C5.25192 13.6981 5.48557 13.722 5.72447 13.722C6.06137 13.722 6.38842 13.6744 6.70197 13.579C5.00397 13.2133 3.72503 11.5917 3.72503 9.64412C3.72503 9.62027 3.72503 9.61227 3.72503 9.59637C4.22545 9.89047 4.79822 10.0732 5.40642 10.0971C4.41009 9.37367 3.75515 8.14157 3.75515 6.75042C3.75515 6.01912 3.93754 5.32747 4.2586 4.73128C6.08697 7.16377 8.82051 8.76162 11.9022 8.92857C11.8389 8.63442 11.8065 8.32447 11.8065 8.01447C11.8065 5.79657 13.4668 4 15.5152 4C16.5816 4 17.5448 4.48498 18.2208 5.26402C19.0672 5.08912 19.86 4.75528 20.5775 4.29422C20.2994 5.23222 19.7123 6.01907 18.9451 6.51192C19.6957 6.41652 20.4117 6.20207 21.0757 5.88407C20.5775 6.68697 19.9505 7.39437 19.2262 7.95877Z" fill="black"/>
</svg>
